<?xml version="1.0" standalone="no"?>
<!DOCTYPE svg PUBLIC "-//W3C//DTD SVG 20010904//EN"
 "http://www.w3.org/TR/2001/REC-SVG-20010904/DTD/svg10.dtd">
<svg version="1.0" xmlns="http://www.w3.org/2000/svg"
 width="200.000000pt" height="200.000000pt" viewBox="0 0 200.000000 200.000000"
 preserveAspectRatio="xMidYMid meet">
<metadata>
Created by potrace 1.14, written by Peter Selinger 2001-2017
</metadata>
<g transform="translate(0.000000,200.000000) scale(0.100000,-0.100000)"
fill="#000000" stroke="none">
<path d="M890 1663 c0 -10 8 -29 17 -43 l17 -24 -36 22 c-51 32 -69 26 -29 -9
l34 -31 -49 3 c-41 3 -61 -2 -122 -34 -39 -21 -72 -43 -72 -48 0 -6 7 -24 16
-40 13 -26 17 -29 31 -17 15 11 16 10 10 -12 -4 -14 -7 -60 -7 -102 0 -89 -4
-92 -76 -59 -49 22 -80 68 -89 134 -7 46 -7 47 18 47 14 0 29 5 32 10 3 6 -1
10 -10 10 -12 0 -14 4 -5 19 14 27 13 34 -5 27 -10 -3 -15 1 -16 12 0 11 -2
13 -6 4 -4 -10 -8 -9 -19 5 -13 17 -13 17 -14 -1 0 -15 -3 -16 -15 -6 -18 15
-19 10 -4 -27 6 -15 11 -48 10 -73 -5 -109 82 -260 174 -305 48 -24 56 -32 70
-76 9 -27 28 -63 42 -79 21 -26 24 -38 22 -92 -2 -49 1 -63 12 -64 8 0 16 -2
19 -3 19 -9 71 -4 75 7 3 8 13 11 25 7 14 -4 20 -2 20 9 0 8 -4 18 -10 21 -5
3 -10 15 -10 26 0 17 7 19 61 19 58 0 61 -1 56 -22 -2 -13 -8 -31 -12 -42 -7
-15 -5 -17 14 -11 13 4 23 2 26 -7 4 -11 56 -16 75 -7 3 1 12 2 20 3 11 1 14
13 11 51 -1 27 -5 53 -7 57 -3 4 8 25 25 45 17 21 37 58 46 83 17 48 29 60 61
60 27 0 99 62 131 113 38 60 55 114 63 202 4 44 11 89 15 99 7 16 5 18 -8 13
-10 -4 -17 -2 -17 5 0 7 -4 7 -13 -1 -8 -6 -17 -8 -20 -4 -4 3 -7 -1 -7 -10 0
-10 -5 -14 -15 -11 -17 7 -21 -11 -5 -21 6 -3 10 -11 10 -16 0 -6 -4 -8 -9 -4
-5 3 -12 1 -16 -5 -4 -6 7 -13 24 -16 27 -6 31 -11 31 -38 0 -41 -38 -115 -71
-139 -14 -10 -44 -21 -67 -24 l-42 -6 0 70 c0 39 -3 86 -7 104 -6 30 -5 33 10
21 14 -12 18 -9 31 17 9 16 16 34 16 40 0 5 -33 27 -74 49 -65 35 -79 39 -122
34 l-48 -5 35 31 c39 36 23 42 -29 10 l-36 -22 17 24 c20 29 23 63 5 58 -20
-7 -58 -82 -66 -130 -7 -37 -11 -43 -32 -43 -21 0 -25 6 -32 43 -12 74 -78
170 -78 115z m41 -173 c26 -14 49 -62 49 -101 0 -77 -93 -108 -151 -50 -39 40
-39 79 2 126 32 36 63 44 100 25z m238 -25 c41 -47 41 -86 2 -126 -57 -57
-151 -27 -151 48 0 102 87 148 149 78z m1 -180 c13 -16 6 -35 -14 -35 -8 0
-19 7 -27 16 -10 13 -10 17 2 25 19 12 25 11 39 -6z m-285 -15 c0 -23 -59 -20
-63 3 -3 15 2 18 30 15 21 -2 33 -8 33 -18z m235 -16 c0 -20 -29 -30 -43 -15
-9 10 -8 16 7 26 21 16 36 11 36 -11z m-162 -22 c-4 -21 -21 -25 -43 -9 -11 9
-16 20 -12 30 5 14 10 15 32 5 14 -6 24 -18 23 -26z m96 3 c7 -18 -26 -37 -57
-33 -14 2 -23 11 -25 26 -3 20 1 22 36 22 26 0 42 -5 46 -15z m126 -80 c0 -8
-9 -19 -20 -25 -28 -15 -41 17 -15 36 20 15 35 10 35 -11z m-306 -7 c5 -9 7
-20 3 -24 -11 -11 -57 14 -57 31 0 21 39 16 54 -7z m236 -42 c-29 -13 -47 13
-22 32 14 11 19 10 30 -5 11 -15 10 -19 -8 -27z m-160 19 c8 -10 10 -19 4 -25
-12 -12 -54 -1 -54 14 0 29 30 35 50 11z m100 -15 c0 -17 -7 -20 -40 -20 -27
0 -40 4 -40 13 0 21 11 27 47 27 26 0 33 -4 33 -20z"/>
<path d="M897 1403 c-15 -15 -6 -43 13 -43 11 0 20 6 20 14 0 17 -24 38 -33
29z"/>
<path d="M1077 1403 c-15 -15 -6 -43 13 -43 11 0 20 6 20 14 0 17 -24 38 -33
29z"/>
<path d="M663 1663 c-13 -2 -23 -11 -23 -19 0 -10 7 -13 28 -8 46 10 53 14 47
24 -6 10 -13 11 -52 3z"/>
<path d="M1285 1661 c-6 -11 0 -15 48 -25 20 -5 27 -3 27 9 0 8 -6 15 -12 15
-7 0 -23 3 -34 6 -12 3 -25 1 -29 -5z"/>
<path d="M678 1607 c-30 -8 -38 -15 -38 -34 0 -28 4 -28 69 -2 78 33 53 60
-31 36z"/>
<path d="M1245 1609 c-9 -13 -8 -14 49 -38 60 -26 66 -26 66 2 0 19 -8 25 -45
35 -55 15 -62 15 -70 1z"/>
</g>
</svg>
