<?xml version="1.0" standalone="no"?>
<!DOCTYPE svg PUBLIC "-//W3C//DTD SVG 20010904//EN"
 "http://www.w3.org/TR/2001/REC-SVG-20010904/DTD/svg10.dtd">
<svg version="1.0" xmlns="http://www.w3.org/2000/svg"
 width="200.000000pt" height="200.000000pt" viewBox="0 0 200.000000 200.000000"
 preserveAspectRatio="xMidYMid meet">
<metadata>
Created by potrace 1.14, written by Peter Selinger 2001-2017
</metadata>
<g transform="translate(0.000000,200.000000) scale(0.100000,-0.100000)"
fill="#000000" stroke="none">
<path d="M1869 1943 c-17 -43 -24 -245 -24 -643 0 -330 2 -368 18 -397 22 -41
50 -43 74 -6 16 25 18 59 18 378 0 374 -9 597 -25 658 -13 46 -45 51 -61 10z"/>
<path d="M67 1932 c-11 -13 -14 -40 -12 -117 4 -137 14 -268 25 -340 5 -33 12
-78 16 -99 8 -55 42 -163 65 -207 23 -45 73 -89 102 -89 27 0 69 27 95 60 44
56 113 229 128 319 3 19 10 43 14 55 8 20 9 20 10 -4 1 -34 43 -193 68 -258
80 -206 208 -244 295 -87 32 56 54 140 73 273 5 38 5 337 -1 397 -8 87 -12 97
-43 93 l-27 -3 -1 -260 c0 -143 -4 -273 -7 -290 -30 -124 -70 -216 -99 -228
-22 -8 -54 10 -78 42 -45 64 -96 225 -115 368 -4 26 -9 59 -11 73 -2 14 -6 61
-10 105 -3 44 -7 98 -9 120 -2 22 -3 50 -4 62 -1 27 -38 41 -56 22 -8 -9 -15
-55 -19 -119 -11 -189 -57 -414 -110 -534 -29 -66 -73 -126 -92 -126 -46 0
-102 196 -119 415 -4 44 -8 91 -10 105 -2 14 -5 70 -6 125 -1 55 -6 107 -10
116 -13 25 -35 30 -52 11z"/>
<path d="M1320 1681 c-182 -40 -298 -236 -245 -416 20 -70 91 -148 151 -164
120 -33 354 29 354 94 0 41 -21 46 -78 20 -171 -79 -310 -57 -351 56 l-9 26
61 2 c262 5 441 159 362 311 -32 61 -143 94 -245 71z m162 -94 c43 -35 41 -72
-4 -118 -56 -55 -153 -88 -280 -93 l-66 -3 5 26 c8 44 39 105 69 134 52 52
110 75 194 76 43 1 61 -4 82 -22z"/>
<path d="M562 868 c-15 -19 -35 -497 -22 -548 5 -18 13 -25 31 -25 27 0 23
-46 30 365 4 190 2 215 -12 218 -9 1 -21 -3 -27 -10z"/>
<path d="M88 857 c-11 -11 -13 -69 -13 -291 1 -293 3 -308 46 -285 15 7 17 24
17 111 0 167 -4 153 44 152 97 -2 211 43 241 94 43 75 1 149 -108 191 -83 31
-208 47 -227 28z m194 -73 c52 -18 98 -60 98 -89 0 -49 -79 -92 -182 -98 -47
-3 -58 0 -59 12 -4 57 -4 178 -1 190 6 16 77 9 144 -15z"/>
<path d="M870 685 c-93 -29 -160 -117 -163 -213 -2 -82 31 -140 93 -165 68
-28 144 -5 209 64 l38 41 7 -49 c8 -63 24 -84 53 -73 19 8 21 13 13 42 -6 18
-8 84 -5 147 6 138 -5 170 -69 201 -49 23 -111 25 -176 5z m167 -70 c31 -35
26 -68 -18 -136 -48 -75 -112 -129 -153 -129 -49 0 -65 8 -83 43 -29 57 -8
165 40 206 37 30 94 49 141 47 40 -2 53 -7 73 -31z"/>
<path d="M1205 668 c-22 -98 -3 -265 37 -324 58 -85 178 -62 239 46 13 22 26
40 29 40 11 0 -9 -141 -30 -210 -32 -109 -82 -140 -184 -114 -19 4 -31 3 -36
-6 -15 -24 1 -39 56 -51 133 -30 215 54 250 256 9 49 9 314 0 348 -15 60 -59
35 -70 -40 -12 -77 -13 -83 -36 -136 -29 -66 -58 -105 -93 -123 -48 -25 -72
-6 -99 81 -8 27 -10 136 -5 220 2 26 -2 30 -25 33 -22 3 -28 -2 -33 -20z"/>
<path d="M1864 623 c-26 -84 -24 -218 2 -264 26 -44 55 -49 80 -12 16 23 19
45 18 123 -1 116 -26 203 -61 208 -19 3 -24 -5 -39 -55z"/>
</g>
</svg>
