<?xml version="1.0" encoding="UTF-8" standalone="no"?>
<svg
   width="200"
   height="200"
   viewBox="0 0 52.916666 52.916666"
   version="1.1"
   id="svg5"
   xmlns="http://www.w3.org/2000/svg"
   xmlns:svg="http://www.w3.org/2000/svg">
  <defs
     id="defs2" />
  <g
     transform="scale(1.0116618,0.98847263)"
     id="text3201"
     style="font-size:32.9249px;line-height:1.25;font-family:Gayathri;-inkscape-font-specification:Gayathri;stroke-width:0.823125">
    <path
       d="M 22.397824,25.797644 29.648375,4.4639803 c 0.03215,-0.080383 0.04823,-0.1607661 0.04823,-0.2411492 0,-0.3536855 -0.707371,-0.4179919 -0.94852,-0.4179919 -0.417992,0 -0.835984,0.1286129 -0.932443,0.3858387 L 21.545763,22.646628 16.819239,4.431827 C 16.706703,4.0138351 16.095792,3.8048392 15.452728,3.8048392 c -0.337609,0 -1.302206,0.1446895 -1.414742,0.578758 L 9.3757684,22.646628 3.0737368,4.4157504 C 2.9290473,3.9977585 2.318136,3.8048392 1.7072248,3.8048392 c -0.6912943,0 -1.38258858,0.2572258 -1.38258858,0.7073709 0,0.1125363 0.0160766,0.1607661 0.0482298,0.2572258 L 7.6877242,25.829797 c 0.1607661,0.498375 0.9324435,0.562681 1.366512,0.562681 0.659141,0 1.3343588,-0.225072 1.4308188,-0.610911 L 15.002582,8.0972944 19.584417,25.797644 c 0.112536,0.401915 0.707371,0.594834 1.318282,0.594834 0.450145,0 1.334358,-0.09646 1.495125,-0.594834 z"
       id="path56915" />
    <path
       d="m 36.689932,26.392478 c 1.961346,0 4.035229,-0.514451 5.675044,-1.607661 0.980673,-0.643064 1.70412,-1.446895 2.122112,-2.315032 0.160766,-0.337609 0.353686,-0.884214 0.353686,-1.253976 0,-0.546604 -0.916367,-0.723447 -1.318282,-0.723447 -0.691295,0 -1.2379,0.305455 -1.286129,0.691294 -0.09646,0.980673 -0.803831,1.929193 -1.880964,2.652641 -1.061056,0.723447 -2.379338,1.09321 -3.649391,1.09321 -3.729773,0 -5.771503,-3.295706 -5.771503,-6.720024 h 12.909519 c 0.578758,0 1.302205,-0.192919 1.302205,-0.868137 0,-4.855137 -3.713697,-7.4113179 -8.327684,-7.4113179 -4.919443,0 -8.488451,3.3921649 -8.488451,8.3598379 0,4.903366 3.536854,8.102612 8.359838,8.102612 z m 5.819733,-9.662043 H 31.079194 c 0.546605,-2.89379 2.620488,-5.337435 5.739351,-5.337435 3.279628,0 5.449971,2.122112 5.69112,5.337435 z"
       id="path56917" />
  </g>
  <g
     transform="scale(1.0104595,0.98964877)"
     id="text9305"
     style="font-size:24.2361px;line-height:1.25;stroke-width:0.605904">
    <path
       d="m 1.9273711,45.731382 c 0.378689,0 1.1952373,-0.165677 1.1952373,-0.662706 v -6.887407 h 6.2483693 c 2.5561513,0 5.1004683,-1.704101 5.1004683,-4.402261 0,-2.698159 -2.544317,-4.390426 -5.1004683,-4.390426 H 1.9273711 c -0.3905231,0 -1.20707138,0.165677 -1.20707138,0.662706 v 15.017388 c 0,0.497029 0.81654828,0.662706 1.20707138,0.662706 z M 9.3709777,36.855857 H 3.1226084 v -6.141863 h 6.2483693 c 1.5620923,0 2.6981593,1.633096 2.6981593,3.065014 0,1.431918 -1.136067,3.076849 -2.6981593,3.076849 z"
       style="font-weight:bold;font-family:Gayathri;-inkscape-font-specification:'Gayathri Bold'"
       id="path56906" />
    <path
       d="m 17.157771,45.731382 c 0.378689,0 1.195237,-0.165677 1.195237,-0.662706 V 29.767271 c 0,-0.497029 -0.816548,-0.662706 -1.195237,-0.662706 -0.390523,0 -1.207071,0.165677 -1.207071,0.662706 v 15.301405 c 0,0.497029 0.816548,0.662706 1.207071,0.662706 z"
       style="font-weight:bold;font-family:Gayathri;-inkscape-font-specification:'Gayathri Bold'"
       id="path56908" />
    <path
       d="m 31.299441,45.731382 c 0.307685,0 0.603535,-0.04734 0.840216,-0.177511 0.236681,-0.11834 0.366855,-0.307685 0.366855,-0.485195 0,-0.153843 -0.106506,-0.319519 -0.331353,-0.449693 -0.686374,-0.390524 -0.769212,-1.23074 -0.769212,-1.928948 v -5.100468 c 0,-2.923006 -3.029512,-3.976235 -5.479157,-3.976235 -1.325412,0 -2.75733,0.307685 -3.857895,1.029561 -0.816548,0.544365 -1.58576,1.420084 -1.58576,2.437811 0,0.497029 0.816548,0.650871 1.183403,0.650871 0.390523,0 1.207071,-0.142008 1.207071,-0.650871 0,-0.662706 0.49703,-1.242574 1.029561,-1.585761 0.591702,-0.378689 1.313578,-0.568033 2.02362,-0.568033 1.64493,0 3.088682,0.863884 3.088682,2.662657 V 38.7138 c -0.461527,0.248515 -1.171569,0.307685 -1.905279,0.307685 -0.650872,0 -1.46742,-0.04734 -1.964449,-0.04734 -2.331305,0 -5.01763,0.449693 -5.01763,3.313529 0,2.532483 2.780997,3.443704 4.946625,3.443704 1.34908,0 3.301696,-0.284017 4.319422,-1.46742 0.177511,0.662705 0.591702,1.005892 1.041395,1.266241 0.236681,0.142008 0.5562,0.201179 0.863885,0.201179 z m -6.224702,-1.313578 c -1.360913,0 -2.544317,-0.662706 -2.544317,-2.130126 0,-1.715935 1.159736,-2.011786 2.615322,-2.011786 0.73371,0 1.479254,0.05917 2.212964,0.05917 0.556199,0 1.112399,-0.02367 1.656764,-0.118341 v 1.136067 c 0,1.96445 -2.165628,3.065015 -3.940733,3.065015 z"
       style="font-weight:bold;font-family:Gayathri;-inkscape-font-specification:'Gayathri Bold'"
       id="path56910" />
    <path
       d="M 45.346436,45.056842 V 34.216868 c 0,-0.49703 -0.816548,-0.662706 -1.207071,-0.662706 -0.378689,0 -1.195238,0.165676 -1.195238,0.662706 v 6.165531 c 0,1.869777 -1.171569,3.976235 -3.278027,3.976235 -2.189296,0 -3.278027,-2.094624 -3.278027,-4.011737 v -6.130029 c 0,-0.49703 -0.816548,-0.662706 -1.195237,-0.662706 -0.390523,0 -1.207071,0.165676 -1.207071,0.662706 v 6.130029 c 0,3.266193 2.414142,5.325314 5.680335,5.325314 1.159735,0 2.414143,-0.355021 3.278027,-1.384581 v 0.639037 c 0,2.378641 -1.02956,3.928899 -3.550209,3.928899 -1.136068,0 -2.414143,-0.343187 -3.088683,-1.325411 -0.213013,-0.307685 -0.698208,-0.414192 -1.124233,-0.414192 -0.390523,0 -1.195237,0.165677 -1.195237,0.650872 0,0.071 0.02367,0.153843 0.08284,0.236681 1.112399,1.609428 3.455537,2.177462 5.348983,2.177462 3.278027,0 5.92885,-1.550258 5.92885,-5.124136 z"
       style="font-weight:bold;font-family:Gayathri;-inkscape-font-specification:'Gayathri Bold'"
       id="path56912" />
  </g>
  <g
     transform="scale(0.71861409,1.3915675)"
     id="text10485"
     style="font-size:45.1554px;line-height:1.25;font-family:Gayathri;-inkscape-font-specification:Gayathri;stroke-width:1.12889">
    <path
       d="m 70.467863,25.508321 c 0.815796,0.02205 1.609543,-0.176389 1.631592,-0.992185 L 72.871154,3.5700284 c 0.02205,-0.8819414 -1.21267,-1.3890577 -2.337145,-1.3890577 -1.168572,0 -2.425339,0.5291648 -2.40329,1.3890577 l 0.771698,20.9461076 c 0.02205,0.793748 0.815796,0.992185 1.565446,0.992185 z m 0.0441,2.910406 c -1.322912,0 -2.381241,1.05833 -2.381241,2.381242 0,1.300863 1.058329,2.359193 2.381241,2.359193 1.300864,0 2.359194,-1.05833 2.359194,-2.359193 0,-1.322912 -1.05833,-2.381242 -2.359194,-2.381242 z"
       id="path56903" />
  </g>
</svg>
